# xmcd CD database file
#
# Track frame offsets:
#	150
#	13875
#	26772
#	39860
#	53135
#	65730
#	78300
#	90260
#	105590
#	118050
#	130537
#	143587
#	157725
#
# Disc length: 2265 seconds
#
# Revision: 3
# Processed by: cddbd v1.5PL3 Copyright (c) Steve Scherf et al.
# Submitted via: CDex 1.50
#
DISCID=9808d70d
DTITLE=Blind Lemon Jefferson - The Complete Recordings
DYEAR=1990
DGENRE=Blues
TTITLE0=Broke And Hungry
TTITLE1=Bad Luck Blues
TTITLE2=Matchbox Blues
TTITLE3=Easy Rider Blues
TTITLE4=Rambler Blues
TTITLE5=One Dime Blues
TTITLE6=Mean Jumper Blues
TTITLE7=Hangmans Blues
TTITLE8=Oil Well Blues
TTITLE9=Tin Cup Blues
TTITLE10=Big Night Blues
TTITLE11=Southern Woman Blues
TTITLE12=That Crawlin' Baby Blues
EXTD=YEAR: 1990
EXTT0=
EXTT1=
EXTT2=
EXTT3=
EXTT4=
EXTT5=
EXTT6=
EXTT7=
EXTT8=
EXTT9=
EXTT10=
EXTT11=
EXTT12=
PLAYORDER=
